<?xml version="1.0" encoding="UTF-8"?>
<svg version="1.1" xmlns="http://www.w3.org/2000/svg" width="89" height="75">
<path d="M0 0 C6.05050626 4.44123342 10.18819213 9.46330865 13.31640625 16.3046875 C13.31640625 16.9646875 13.31640625 17.6246875 13.31640625 18.3046875 C9.77819383 18.86630852 7.72628784 19.16493118 4.31640625 18.3046875 C1.74531387 15.99330142 -0.30740265 13.47890884 -2.48046875 10.79296875 C-6.7800405 5.93689214 -12.52429747 3.74980517 -18.91015625 3.06640625 C-26.27877239 2.83838718 -33.07618244 4.10190978 -38.73828125 9.12890625 C-39.38023438 9.76441406 -40.0221875 10.39992188 -40.68359375 11.0546875 C-43.84709314 14.09501785 -45.79048167 14.7606978 -50.18359375 14.7421875 C-51.68657933 14.63127441 -53.1889252 14.49764676 -54.68359375 14.3046875 C-51.61343269 5.35005109 -44.7016538 0.51056996 -36.59375 -3.80859375 C-24.87694198 -8.55378855 -10.45817048 -6.60676272 0 0 Z " fill="#FF5B12" transform="translate(72.68359375,5.6953125)"/>
<path d="M0 0 C3.42547315 -0.42649172 6.58768526 -0.59098825 10 0 C11.88519083 1.55528244 13.08380951 3.19202819 14.49609375 5.1796875 C17.63487442 8.97883501 22.43955357 10.47985119 27 12 C37.85006256 12.85071185 45.55041385 11.83950737 54 4.875 C55.8218525 3.24714105 56.90338752 2.19322497 58 0 C61.3 0 64.6 0 68 0 C65.79160487 7.85207158 59.08130813 13.58863584 52.375 17.74609375 C42.65688314 22.87687584 32.31241593 23.53277382 21.8125 20.4375 C12.32011539 16.89334595 5.40179689 10.52823883 0 2 C0 1.34 0 0.68 0 0 Z " fill="#FF5B12" transform="translate(17,53)"/>
<path d="M0 0 C2.97 0 5.94 0 9 0 C8.67 1.258125 8.34 2.51625 8 3.8125 C6.28582826 11.53235147 6.62275026 19.2529702 8 27 C3.81847372 27.68995184 0.15742784 27.92217456 -4 27 C-7.48282389 23.80182999 -9.6649625 20.08070255 -12 16 C-12.8229682 14.80529333 -13.65372895 13.6158149 -14.5 12.4375 C-16 10 -16 10 -16 8 C-14.56510191 7.86463226 -13.12652893 7.76782857 -11.6875 7.6875 C-10.88699219 7.62949219 -10.08648437 7.57148438 -9.26171875 7.51171875 C-8.51535156 7.67285156 -7.76898438 7.83398438 -7 8 C-6.01 9.65 -5.02 11.3 -4 13 C-2.68 8.71 -1.36 4.42 0 0 Z " fill="#FFFFFF" transform="translate(16,23)"/>
<path d="M0 0 C1.33804688 0.04060547 1.33804688 0.04060547 2.703125 0.08203125 C3.37859375 0.11683594 4.0540625 0.15164062 4.75 0.1875 C4.75 2.4975 4.75 4.8075 4.75 7.1875 C1.78 7.1875 -1.19 7.1875 -4.25 7.1875 C-4.25 7.8475 -4.25 8.5075 -4.25 9.1875 C-3.0125 9.105 -1.775 9.0225 -0.5 8.9375 C2.6010592 8.94849666 3.56412391 9.06668054 6.25 10.8125 C8.20562482 13.90890596 8.35024477 15.58603135 7.75 19.1875 C5.8829009 21.49025556 4.39352259 22.86573871 1.75 24.1875 C-3.24220285 24.56427003 -6.23020143 24.26146361 -10.25 21.1875 C-12.38638321 16.91473359 -11.45228288 11.43415963 -10.5 6.875 C-8.55447759 1.1357089 -5.93568932 -0.23430353 0 0 Z M-5.25 15.1875 C-4.92 16.1775 -4.59 17.1675 -4.25 18.1875 C-2.6 18.1875 -0.95 18.1875 0.75 18.1875 C0.75 17.1975 0.75 16.2075 0.75 15.1875 C-2.29913228 14.17638907 -2.29913228 14.17638907 -5.25 15.1875 Z " fill="#FFFFFF" transform="translate(61.25,25.8125)"/>
<path d="M0 0 C2.8100346 1.79363911 4.50940468 3.01880935 6 6 C6.41251687 10.92640344 6.6526414 15.47717008 4.6875 20.0625 C2.13213024 22.99644306 0.52128627 23.95173275 -3.375 24.3125 C-7.18677821 23.98389843 -8.99291148 23.29953828 -12 21 C-14.3369456 16.3261088 -13.50450723 10.07440414 -13 5 C-9.86911049 -0.28337604 -5.78990876 -1.29834318 0 0 Z M-5 6 C-7.18331689 7.76136355 -7.18331689 7.76136355 -7.1953125 9.9453125 C-7.16050781 11.02425781 -7.16050781 11.02425781 -7.125 12.125 C-7.08375 13.40375 -7.0425 14.6825 -7 16 C-5.11683841 17.10836423 -5.11683841 17.10836423 -3 18 C-2.34 17.67 -1.68 17.34 -1 17 C0.08942909 12.23040203 0.08942909 12.23040203 -0.9375 7.5625 C-1.288125 7.046875 -1.63875 6.53125 -2 6 C-2.99 6 -3.98 6 -5 6 Z " fill="#FFFFFF" transform="translate(83,26)"/>
<path d="M0 0 C5.28 0 10.56 0 16 0 C16 6 16 6 14.5 7.875 C14.005 8.24625 13.51 8.6175 13 9 C13.66 9.515625 14.32 10.03125 15 10.5625 C17 13 17 13 17.4375 16.5625 C17 20 17 20 15.6875 21.875 C12.28153983 24.14564011 9.27599491 24.10912935 5.3125 24.0625 C4.31863281 24.05347656 3.32476562 24.04445313 2.30078125 24.03515625 C1.16189453 24.01775391 1.16189453 24.01775391 0 24 C0 21.69 0 19.38 0 17 C3.63 17 7.26 17 11 17 C11 16.34 11 15.68 11 15 C8.69 15 6.38 15 4 15 C3.875 12.625 3.875 12.625 4 10 C4.66 9.34 5.32 8.68 6 8 C3.03 7.505 3.03 7.505 0 7 C0 4.69 0 2.38 0 0 Z " fill="#FFFFFF" transform="translate(32,26)"/>
</svg>
