<?xml version="1.0" encoding="UTF-8"?>
<svg version="1.1" xmlns="http://www.w3.org/2000/svg" width="286" height="88">
<path d="M0 0 C1.084021 0.00523682 2.16804199 0.01047363 3.28491211 0.01586914 C4.45473633 0.0190918 5.62456055 0.02231445 6.82983398 0.02563477 C8.0615332 0.03401367 9.29323242 0.04239258 10.56225586 0.05102539 C12.41560547 0.05779297 12.41560547 0.05779297 14.30639648 0.06469727 C17.37089703 0.07652931 20.43530307 0.09301366 23.49975586 0.11352539 C24.65559375 3.58103907 24.31982994 4.34295256 23.13647461 7.68383789 C22.82645508 8.58102539 22.51643555 9.47821289 22.19702148 10.40258789 C21.6971875 11.80637695 21.6971875 11.80637695 21.18725586 13.23852539 C17.52962021 23.61770791 15.12228064 32.74166122 15.18725586 43.80102539 C15.19072021 44.76492187 15.19418457 45.72881836 15.19775391 46.72192383 C15.35896993 57.37108861 17.63628378 67.01729008 20.94897461 77.12524414 C21.49975586 79.11352539 21.49975586 79.11352539 21.49975586 82.11352539 C16.2348768 82.38694118 10.97417985 82.58567914 5.70385742 82.71777344 C3.91471356 82.77285632 2.12605973 82.84775611 0.33862305 82.94335938 C-14.48474971 83.71592646 -14.48474971 83.71592646 -19.34594727 79.85107422 C-21.40728111 77.03021295 -22.98011567 74.25406109 -24.50024414 71.11352539 C-25.27908354 69.92736021 -26.07744611 68.75343939 -26.90649414 67.60180664 C-27.94290039 66.02979492 -27.94290039 66.02979492 -29.00024414 64.42602539 C-29.83337841 63.16677908 -30.66672893 61.90767583 -31.50024414 60.64868164 C-31.96172852 59.9501709 -32.42321289 59.25166016 -32.89868164 58.53198242 C-36.25276065 53.4671186 -39.62901672 48.41698327 -43.00024414 43.36352539 C-44.38573367 41.28544897 -45.771155 39.20732707 -47.15649414 37.12915039 C-48.05078125 35.78771973 -48.05078125 35.78771973 -48.96313477 34.41918945 C-52.50024414 29.11352539 -52.50024414 29.11352539 -52.50024414 25.11352539 C-48.45981741 24.85118914 -44.42157933 24.69202048 -40.37524414 24.55102539 C-39.23313477 24.47561523 -38.09102539 24.40020508 -36.91430664 24.32250977 C-28.65328558 24.1063784 -28.65328558 24.1063784 -25.5456543 26.82080078 C-23.94609509 29.17681067 -22.7164745 31.53990808 -21.50024414 34.11352539 C-20.58363498 35.72350032 -19.6592184 37.3290569 -18.72680664 38.92993164 C-17.8556225 40.50976557 -16.98841833 42.09180086 -16.12524414 43.67602539 C-15.67536133 44.49393555 -15.22547852 45.3118457 -14.76196289 46.15454102 C-13.67112695 48.13893407 -12.58394924 50.12523203 -11.50024414 52.11352539 C-11.55245117 50.20893555 -11.55245117 50.20893555 -11.60571289 48.26586914 C-11.92633165 31.59369365 -9.05798073 16.82712597 -3.50024414 1.11352539 C-2.50024414 0.11352539 -2.50024414 0.11352539 0 0 Z " fill="#FF5B00" transform="translate(56.500244140625,2.886474609375)"/>
<path d="M0 0 C1.24265625 -0.00128906 2.4853125 -0.00257812 3.765625 -0.00390625 C5.0546875 -0.00003906 6.34375 0.00382813 7.671875 0.0078125 C8.97640625 0.00394531 10.2809375 0.00007812 11.625 -0.00390625 C12.8625 -0.00261719 14.1 -0.00132813 15.375 0 C16.51098633 0.00112793 17.64697266 0.00225586 18.81738281 0.00341797 C21.421875 0.1328125 21.421875 0.1328125 22.421875 1.1328125 C22.49517831 3.99750575 22.51405331 6.83174924 22.484375 9.6953125 C22.46375 12.4796875 22.443125 15.2640625 22.421875 18.1328125 C13.841875 18.4628125 5.261875 18.7928125 -3.578125 19.1328125 C-5.38143033 22.73942316 -6.04411603 25.21674675 -6.578125 29.1328125 C-6.02125 28.91625 -5.464375 28.6996875 -4.890625 28.4765625 C4.23973011 25.14521672 11.43957103 25.53368552 20.421875 29.1328125 C25.36533496 32.14187509 28.30282813 36.51063449 30.015625 42.0546875 C31.37396078 49.00309743 30.88899577 55.89758724 27.421875 62.1328125 C23.13410786 67.4006407 17.13177172 71.71701893 10.421875 73.1328125 C0.88498103 73.96046969 -10.39345815 74.79056279 -18.578125 69.1328125 C-23.54946846 64.83635505 -27.33129173 59.67571853 -28.578125 53.1328125 C-28.74126086 47.97449692 -28.25397217 43.0792705 -27.40625 38.00390625 C-27.28256042 37.25117935 -27.15887085 36.49845245 -27.03143311 35.72291565 C-26.76888936 34.14165646 -26.50315466 32.56092406 -26.234375 30.98071289 C-25.82906586 28.57589492 -25.44553457 26.16821822 -25.0625 23.75976562 C-24.80341545 22.21592169 -24.54304184 20.67229341 -24.28125 19.12890625 C-24.17065247 18.41625107 -24.06005493 17.70359589 -23.94610596 16.96934509 C-22.99582043 11.59481671 -21.13188845 7.21810033 -16.83203125 3.70703125 C-11.05432732 0.6780733 -6.46902239 0.00639773 0 0 Z M-9.578125 46.1328125 C-10.24479167 49.1328125 -10.24479167 49.1328125 -9.578125 52.1328125 C-8.03306034 54.16948865 -6.85666344 54.99354328 -4.578125 56.1328125 C0.86415356 56.62318029 5.75483035 56.99839338 10.671875 54.4453125 C12.59189132 52.26022263 12.59189132 52.26022263 12.921875 49.5703125 C12.34130954 46.74005587 11.72170777 45.83639233 9.421875 44.1328125 C3.6048373 42.19379993 -5.02051325 41.41804173 -9.578125 46.1328125 Z " fill="#6425A2" transform="translate(189.578125,12.8671875)"/>
<path d="M0 0 C5.21367247 3.98621112 9.06526828 10.51100358 10.3125 16.9375 C10.53346298 21.1625801 10.54067028 25.38671152 10.55273438 29.6171875 C10.5624037 31.66708527 10.5934364 33.7159637 10.625 35.765625 C10.66400312 45.67241825 9.69894224 52.99759884 3.3125 60.9375 C-5.6713576 68.97872586 -14.20796287 69.60942609 -25.77197266 69.08105469 C-32.18185362 68.60068125 -37.16315006 65.61057165 -41.74462891 61.20019531 C-49.01334253 52.73494803 -49.4469879 42.40331868 -49.25 31.75 C-49.26095703 30.44869141 -49.27191406 29.14738281 -49.28320312 27.80664062 C-49.20098786 17.00355451 -46.99141754 9.62084217 -39.62109375 1.6640625 C-28.77010381 -8.02510427 -11.90861085 -7.31640144 0 0 Z M-27.6875 15.9375 C-31.18923138 21.18597739 -31.11117643 25.92087292 -31 32 C-31.00322266 32.88494141 -31.00644531 33.76988281 -31.00976562 34.68164062 C-30.96173199 40.50244439 -30.63704717 44.75164408 -26.625 49.25 C-22.58547219 51.57057981 -19.2426296 51.89015452 -14.6875 50.9375 C-11.62166597 49.21017979 -9.28522442 47.13294885 -7.6875 43.9375 C-7.39210768 40.19396257 -7.40945985 36.44132594 -7.375 32.6875 C-7.33149414 31.13095703 -7.33149414 31.13095703 -7.28710938 29.54296875 C-7.2357827 23.36007881 -7.46346586 19.59476841 -11.6875 14.9375 C-17.45987762 11.68128698 -22.22039945 12.37199964 -27.6875 15.9375 Z " fill="#6425A2" transform="translate(272.6875,17.0625)"/>
<path d="M0 0 C1.46657043 -0.00472824 1.46657043 -0.00472824 2.96276855 -0.009552 C4.0262854 -0.00752777 5.08980225 -0.00550354 6.18554688 -0.00341797 C7.81127625 -0.00485306 7.81127625 -0.00485306 9.46984863 -0.00631714 C11.76652077 -0.00699912 14.06319482 -0.00514358 16.35986328 -0.00097656 C19.88904115 0.00437141 23.41809174 -0.00092097 26.94726562 -0.00732422 C29.17252632 -0.00666344 31.39778694 -0.00538228 33.62304688 -0.00341797 C34.68656372 -0.0054422 35.75008057 -0.00746643 36.8458252 -0.009552 C37.82353882 -0.00639984 38.80125244 -0.00324768 39.80859375 0 C40.67383667 0.00079559 41.53907959 0.00159119 42.43054199 0.00241089 C44.40429688 0.12939453 44.40429688 0.12939453 45.40429688 1.12939453 C46.4383945 6.50981224 47.2018415 12.19671703 44.23828125 17.03173828 C40.99041629 21.10124855 37.19892241 24.57975917 33.40429688 28.12939453 C33.07429688 28.78939453 32.74429688 29.44939453 32.40429688 30.12939453 C33.10554688 30.21189453 33.80679688 30.29439453 34.52929688 30.37939453 C39.12228037 31.57756414 42.19295114 33.33774443 44.89648438 37.33642578 C48.82968295 44.5695113 49.51914807 49.78266989 47.21679688 57.75439453 C45.13914846 63.3171306 42.22417032 67.43519874 36.91601562 70.28173828 C29.24805166 73.56723276 20.51107802 72.54357006 12.34179688 72.37939453 C10.60028093 72.35930074 8.85874263 72.34105506 7.1171875 72.32470703 C2.8789991 72.28093447 -1.35810234 72.21206702 -5.59570312 72.12939453 C-5.62254625 69.31683172 -5.642465 66.50452212 -5.65820312 63.69189453 C-5.66658203 62.88945313 -5.67496094 62.08701172 -5.68359375 61.26025391 C-5.69221743 59.21644232 -5.64798462 57.17255551 -5.59570312 55.12939453 C-3.64472227 53.17841368 0.05104616 53.87524345 2.72070312 53.81298828 C3.45175766 53.79220718 4.18281219 53.77142609 4.9360199 53.75001526 C7.27951344 53.68444429 9.62312226 53.62560021 11.96679688 53.56689453 C13.55209543 53.52371645 15.13738217 53.4801024 16.72265625 53.43603516 C20.61641725 53.32875534 24.5102946 53.22750963 28.40429688 53.12939453 C28.40429688 50.81939453 28.40429688 48.50939453 28.40429688 46.12939453 C26.16722021 45.0108562 24.79053291 44.95020371 22.30664062 44.84814453 C21.10491211 44.79207031 21.10491211 44.79207031 19.87890625 44.73486328 C18.18360048 44.66438868 16.48828793 44.59407692 14.79296875 44.52392578 C8.50494803 44.23004568 8.50494803 44.23004568 7.40429688 43.12939453 C6.79270992 38.65474568 6.33348438 34.069793 8.56835938 30.02001953 C10.09108637 28.25521798 11.67176297 26.68745781 13.40429688 25.12939453 C14.36635185 24.17479735 15.32507356 23.21682034 16.27929688 22.25439453 C16.98054688 21.55314453 17.68179688 20.85189453 18.40429688 20.12939453 C18.40429688 19.79939453 18.40429688 19.46939453 18.40429688 19.12939453 C10.48429687 18.79939453 2.56429687 18.46939453 -5.59570312 18.12939453 C-5.61632812 15.34501953 -5.63695313 12.56064453 -5.65820312 9.69189453 C-5.66730713 8.813479 -5.67641113 7.93506348 -5.68579102 7.0300293 C-5.69293403 5.06293479 -5.64602206 3.09585832 -5.59570312 1.12939453 C-3.98161063 -0.48469797 -2.23093904 0.00205135 0 0 Z " fill="#6425A2" transform="translate(109.595703125,12.87060546875)"/>
</svg>
